<svg width="12" height="12" viewBox="0 0 12 12" fill="none" xmlns="http://www.w3.org/2000/svg">
<g clip-path="url(#clip0_18_3988)">
<path d="M6 7C6.83 7 7.5 6.33 7.5 5.5V2.5C7.5 1.67 6.83 1 6 1C5.17 1 4.5 1.67 4.5 2.5V5.5C4.5 6.33 5.17 7 6 7Z" fill="#B6CFF4"/>
<path d="M8.5 5.5C8.5 6.88 7.38 8 6 8C4.62 8 3.5 6.88 3.5 5.5H2.5C2.5 7.265 3.805 8.715 5.5 8.96V10.5H6.5V8.96C8.195 8.715 9.5 7.265 9.5 5.5H8.5V5.5Z" fill="#B6CFF4"/>
</g>
<defs>
<clipPath id="clip0_18_3988">
<rect width="12" height="12" rx="6" fill="white"/>
</clipPath>
</defs>
</svg>
