<svg width="16" height="16" viewBox="0 0 16 16" fill="none" xmlns="http://www.w3.org/2000/svg">
<path d="M4.53564 14.8252H11.4609C12.1211 14.8252 12.6204 14.6559 12.959 14.3174C13.2975 13.9788 13.4668 13.4858 13.4668 12.8384V6.96045C13.4668 6.30876 13.2975 5.81576 12.959 5.48145C12.6204 5.1429 12.1211 4.97363 11.4609 4.97363H9.85498V6.24316H11.3657C11.6323 6.24316 11.8376 6.31299 11.9814 6.45264C12.1253 6.58805 12.1973 6.79753 12.1973 7.08105V12.7114C12.1973 12.9907 12.1253 13.2002 11.9814 13.3398C11.8376 13.4795 11.6323 13.5493 11.3657 13.5493H4.63086C4.36426 13.5493 4.15902 13.4795 4.01514 13.3398C3.87549 13.2002 3.80566 12.9907 3.80566 12.7114V7.08105C3.80566 6.79753 3.87549 6.58805 4.01514 6.45264C4.15902 6.31299 4.36426 6.24316 4.63086 6.24316H6.16064V4.97363H4.53564C3.87972 4.97363 3.38037 5.14079 3.0376 5.4751C2.69906 5.80941 2.52979 6.30452 2.52979 6.96045V12.8384C2.52979 13.4858 2.69906 13.9788 3.0376 14.3174C3.38037 14.6559 3.87972 14.8252 4.53564 14.8252ZM8.00146 10.001C8.16227 10.001 8.2998 9.94385 8.41406 9.82959C8.53255 9.7111 8.5918 9.57568 8.5918 9.42334V3.41846L8.54102 2.52979L8.89648 2.98047L9.70898 3.84375C9.81478 3.95801 9.94596 4.01514 10.1025 4.01514C10.2464 4.01514 10.3691 3.96859 10.4707 3.87549C10.5723 3.77816 10.623 3.65755 10.623 3.51367C10.623 3.37402 10.5701 3.24919 10.4644 3.13916L8.45215 1.20312C8.37598 1.12695 8.2998 1.07406 8.22363 1.04443C8.15169 1.01481 8.07764 1 8.00146 1C7.92106 1 7.84277 1.01481 7.7666 1.04443C7.69466 1.07406 7.62061 1.12695 7.54443 1.20312L5.53857 3.13916C5.42855 3.24919 5.37354 3.37402 5.37354 3.51367C5.37354 3.65755 5.42432 3.77816 5.52588 3.87549C5.62744 3.96859 5.74805 4.01514 5.8877 4.01514C6.0485 4.01514 6.1818 3.95801 6.2876 3.84375L7.1001 2.98047L7.45557 2.52979L7.40479 3.41846V9.42334C7.40479 9.57568 7.46191 9.7111 7.57617 9.82959C7.69466 9.94385 7.83643 10.001 8.00146 10.001Z" fill="#606368"/>
</svg>
