<svg width="22" height="22" viewBox="0 0 22 22" fill="none" xmlns="http://www.w3.org/2000/svg">
<rect width="22" height="22" rx="11" fill="#DFE1E6"/>
<path d="M11 5C11.7956 5 12.5587 5.31607 13.1213 5.87868C13.6839 6.44129 14 7.20435 14 8C14 8.79565 13.6839 9.55871 13.1213 10.1213C12.5587 10.6839 11.7956 11 11 11C10.2043 11 9.44129 10.6839 8.87868 10.1213C8.31607 9.55871 8 8.79565 8 8C8 7.20435 8.31607 6.44129 8.87868 5.87868C9.44129 5.31607 10.2043 5 11 5ZM11 12C14.315 12 17 13.3425 17 15V17H5V15C5 13.3425 7.685 12 11 12Z" fill="#606368"/>
</svg>
