<svg width="16" height="16" viewBox="0 0 16 16" fill="none" xmlns="http://www.w3.org/2000/svg">
<path d="M8 10.5425L5.18 12.245L5.85468 9.32818C5.89641 9.1478 5.83504 8.95913 5.69518 8.83781L3.4325 6.875L6.41677 6.6229C6.60172 6.60728 6.76279 6.4905 6.83514 6.31957L8 3.5675L9.16486 6.31957C9.23721 6.4905 9.39828 6.60728 9.58323 6.6229L12.5675 6.875L10.3048 8.83781C10.165 8.95913 10.1036 9.1478 10.1453 9.32818L10.82 12.245M14.6043 6.70594C14.9386 6.41634 14.7599 5.86721 14.3192 5.82982L10.4079 5.49799C10.2231 5.48231 10.0622 5.36564 9.98984 5.19489L8.46036 1.58618C8.28807 1.17967 7.71193 1.17967 7.53964 1.58618L6.01016 5.19489C5.93779 5.36564 5.77686 5.48231 5.59207 5.49799L1.67932 5.82995C1.23883 5.86732 1.05999 6.41601 1.39386 6.70577L4.36016 9.28019C4.50002 9.40158 4.56134 9.59033 4.51951 9.77074L3.63215 13.5978C3.53232 14.0284 3.99921 14.3672 4.37759 14.1388L7.74163 12.1084C7.90053 12.0125 8.09947 12.0125 8.25837 12.1084L11.6205 14.1377C11.9992 14.3662 12.4663 14.0267 12.3658 13.596L11.4736 9.7714C11.4314 9.59065 11.4928 9.40142 11.6331 9.27989L14.6043 6.70594Z" fill="#606368"/>
</svg>
