<svg width="20" height="20" viewBox="0 0 20 20" fill="none" xmlns="http://www.w3.org/2000/svg">
<path d="M15.8333 9.16666C16.2935 9.16666 16.6666 9.53975 16.6666 9.99999L-nan -nanL16.6666 9.99999C16.6666 10.4602 16.2935 10.8333 15.8333 10.8333H6.66665L10.6583 14.825C10.9851 15.1518 10.9851 15.6816 10.6583 16.0083L-nan -nanL10.6583 16.0083C10.3315 16.3351 9.80175 16.3351 9.47498 16.0083L4.17375 10.7071C3.78323 10.3166 3.78323 9.68341 4.17375 9.29288L9.47498 3.99166C9.80175 3.66489 10.3315 3.66489 10.6583 3.99166L-nan -nanL10.6583 3.99166C10.9851 4.31843 10.9851 4.84822 10.6583 5.17499L6.66665 9.16666H15.8333Z" fill="#606368"/>
</svg>
