<svg width="16" height="16" viewBox="0 0 16 16" fill="none" xmlns="http://www.w3.org/2000/svg">
<path d="M12.6806 5.26168C12.6094 5.31793 11.3516 6.03925 11.3516 7.64316C11.3516 9.49835 12.9521 10.1547 13 10.1709C12.9926 10.2109 12.7457 11.0698 12.1561 11.9448C11.6304 12.7149 11.0813 13.4837 10.246 13.4837C9.41076 13.4837 9.1958 12.9899 8.23154 12.9899C7.29186 12.9899 6.95775 13.5 6.19371 13.5C5.42968 13.5 4.89657 12.7874 4.28363 11.9123C3.57364 10.8847 3 9.28833 3 7.77318C3 5.34293 4.55263 4.05406 6.0807 4.05406C6.89264 4.05406 7.56946 4.59661 8.07923 4.59661C8.56443 4.59661 9.32109 4.02155 10.2448 4.02155C10.5949 4.02155 11.8527 4.05406 12.6806 5.26168ZM9.80629 2.9927C10.1883 2.5314 10.4585 1.89134 10.4585 1.25128C10.4585 1.16252 10.4512 1.07251 10.4352 1C9.81366 1.02375 9.07419 1.42129 8.6283 1.94759C8.27822 2.35264 7.95148 2.9927 7.95148 3.64151C7.95148 3.73902 7.96745 3.83653 7.97482 3.86779C8.01413 3.87529 8.078 3.88404 8.14187 3.88404C8.69955 3.88404 9.40093 3.504 9.80629 2.9927Z" fill="#8B8E92"/>
</svg>
