<svg width="20" height="20" viewBox="0 0 20 20" fill="none" xmlns="http://www.w3.org/2000/svg">
<path d="M14.7085 5.29171C13.5002 4.08337 11.8418 3.33337 10.0002 3.33337C8.23205 3.33337 6.53636 4.03575 5.28612 5.286C4.03588 6.53624 3.3335 8.23193 3.3335 10C3.3335 11.7682 4.03588 13.4638 5.28612 14.7141C6.53636 15.9643 8.23205 16.6667 10.0002 16.6667C12.7141 16.6667 15.0341 15.0468 16.0729 12.7221C16.3041 12.2046 15.8894 11.6667 15.3226 11.6667L-nan -nanL15.3226 11.6667C14.9547 11.6667 14.6334 11.9026 14.4693 12.232C13.6518 13.8728 11.9576 15 10.0002 15C8.67408 15 7.40231 14.4733 6.46463 13.5356C5.52695 12.5979 5.00016 11.3261 5.00016 10C5.00016 8.67396 5.52695 7.40219 6.46463 6.46451C7.40231 5.52682 8.67408 5.00004 10.0002 5.00004C11.3835 5.00004 12.6168 5.57504 13.5168 6.48337L10.8335 9.16671H16.6668V3.33337L14.7085 5.29171Z" fill="#606368"/>
</svg>
