<svg width="8" height="8" viewBox="0 0 8 8" fill="none" xmlns="http://www.w3.org/2000/svg">
<path d="M0.200514 7.80438C0.286204 7.89012 0.389032 7.94671 0.508997 7.97414C0.632391 8.00501 0.752356 8.00501 0.868895 7.97414C0.98886 7.94671 1.08997 7.89183 1.17224 7.80952L4 4.98003L6.82262 7.80952C6.95287 7.93985 7.11397 8.0033 7.30591 7.99987C7.50129 7.99987 7.66581 7.93299 7.79949 7.79923C7.93316 7.66547 8 7.50256 8 7.3105C8 7.11844 7.93488 6.95724 7.80463 6.82692L4.98201 3.99743L7.80463 1.17308C7.93488 1.04619 8 0.88499 8 0.689498C8 0.494006 7.93316 0.331096 7.79949 0.200768C7.66581 0.0670107 7.50129 0.000131911 7.30591 0.000131911C7.11397 -0.00329777 6.95287 0.0601514 6.82262 0.190479L4 3.01997L1.17224 0.190479C1.08997 0.108167 0.98886 0.053292 0.868895 0.0258545C0.752356 -0.00501261 0.632391 -0.00672746 0.508997 0.02071C0.389032 0.0481475 0.286204 0.106452 0.200514 0.195624C0.111397 0.288225 0.0514139 0.394545 0.0205656 0.514584C-0.00685519 0.631194 -0.00685519 0.749518 0.0205656 0.869557C0.0514139 0.989596 0.107969 1.09077 0.190231 1.17308L3.01799 3.99743L0.190231 6.82692C0.107969 6.91266 0.0514139 7.01555 0.0205656 7.13559C-0.00685519 7.2522 -0.00685519 7.37052 0.0205656 7.49056C0.0514139 7.6106 0.111397 7.7152 0.200514 7.80438Z" fill="#3D4043"/>
</svg>
