<svg width="20" height="20" viewBox="0 0 20 20" fill="none" xmlns="http://www.w3.org/2000/svg">
<path d="M4.16669 9.16666C3.70645 9.16666 3.33335 9.53975 3.33335 9.99999L-nan -nanL-nan -nanL3.33335 9.99999C3.33335 10.4602 3.70645 10.8333 4.16669 10.8333H13.3334L9.34169 14.825C9.01492 15.1518 9.01492 15.6816 9.34169 16.0083L-nan -nanL-nan -nanL9.34169 16.0083C9.66846 16.3351 10.1983 16.3351 10.525 16.0083L15.8262 10.7071C16.2168 10.3166 16.2168 9.68341 15.8262 9.29288L10.525 3.99166C10.1983 3.66489 9.66846 3.66489 9.34169 3.99166L-nan -nanL-nan -nanL9.34169 3.99166C9.01492 4.31843 9.01492 4.84822 9.34169 5.17499L13.3334 9.16666H4.16669Z" fill="#BABCBE"/>
</svg>
