<svg width="16" height="16" viewBox="0 0 16 16" fill="none" xmlns="http://www.w3.org/2000/svg">
<path fill-rule="evenodd" clip-rule="evenodd" d="M2.68719 3.43987C5.93959 -0.348426 11.9768 0.397433 14.2307 4.82624H8.81283C7.83543 4.82624 7.20348 4.80517 6.52098 5.16335C5.71631 5.58474 5.11386 6.36852 4.89899 7.29137L2.68719 3.43987ZM5.66997 8.00352C5.66997 9.28875 6.71057 10.3296 7.99552 10.3338C9.28047 10.3338 10.3211 9.28875 10.3211 8.00352C10.3211 6.71828 9.28047 5.67744 7.99552 5.67323C6.71057 5.67744 5.66997 6.71828 5.66997 8.00352ZM8.89709 11.0502C7.59107 11.4378 6.06177 11.008 5.22761 9.56266C4.58724 8.45862 2.90205 5.51732 2.1353 4.18151C-0.552572 8.3027 1.76455 13.9156 6.64316 14.8722C6.64316 14.8722 8.89709 11.0502 8.89709 11.0502ZM10.1568 5.67323C11.2437 6.68457 11.4796 8.32377 10.7466 9.59215C10.1905 10.5487 8.42103 13.5406 7.56158 14.9859C12.5876 15.2978 16.2529 10.3675 14.5972 5.66902L10.1568 5.67323Z" fill="#3D4043"/>
</svg>
