<svg width="12" height="12" viewBox="0 0 12 12" fill="none" xmlns="http://www.w3.org/2000/svg">
<path d="M0 6C0 6.27757 0.0991326 6.51549 0.297398 6.71375C0.495663 6.90706 0.731103 7.00372 1.00372 7.00372H5.00372V11.0037C5.00372 11.2763 5.10037 11.5093 5.29368 11.7026C5.49195 11.9009 5.72739 12 6 12C6.27757 12 6.51301 11.9009 6.70632 11.7026C6.90458 11.5093 7.00372 11.2763 7.00372 11.0037V7.00372H11.0037C11.2763 7.00372 11.5093 6.90706 11.7026 6.71375C11.9009 6.51549 12 6.27757 12 6C12 5.72739 11.9009 5.49195 11.7026 5.29368C11.5093 5.09542 11.2763 4.99628 11.0037 4.99628H7.00372V1.00372C7.00372 0.731103 6.90458 0.495663 6.70632 0.297398C6.51301 0.0991326 6.27757 0 6 0C5.72739 0 5.49195 0.0991326 5.29368 0.297398C5.10037 0.495663 5.00372 0.731103 5.00372 1.00372V4.99628H1.00372C0.731103 4.99628 0.495663 5.09542 0.297398 5.29368C0.0991326 5.49195 0 5.72739 0 6Z" fill="#3D4043"/>
</svg>
