<svg width="16" height="16" viewBox="0 0 16 16" fill="none" xmlns="http://www.w3.org/2000/svg">
<path d="M6.34102 2.34644C7.4903 2.34644 8.5925 2.80298 9.40515 3.61564C10.2178 4.4283 10.6744 5.5305 10.6744 6.67977C10.6744 7.7531 10.281 8.73977 9.63436 9.49977L9.66791 9.53332C9.76168 9.62709 9.88886 9.67977 10.0215 9.67977H10.1339C10.2665 9.67977 10.3937 9.73245 10.4875 9.82622L13.3208 12.6595C13.5161 12.8548 13.5161 13.1714 13.3208 13.3667L13.0279 13.6595C12.8326 13.8548 12.5161 13.8548 12.3208 13.6595L9.48747 10.8262C9.3937 10.7324 9.34102 10.6053 9.34102 10.4727V10.3602C9.34102 10.2276 9.28835 10.1004 9.19458 10.0067L9.16102 9.9731C8.40102 10.6198 7.41436 11.0131 6.34102 11.0131C5.19175 11.0131 4.08955 10.5566 3.27689 9.7439C2.46424 8.93124 2.00769 7.82904 2.00769 6.67977C2.00769 5.5305 2.46424 4.4283 3.27689 3.61564C4.08955 2.80298 5.19175 2.34644 6.34102 2.34644ZM6.34102 3.67977C4.67436 3.67977 3.34102 5.0131 3.34102 6.67977C3.34102 8.34644 4.67436 9.67977 6.34102 9.67977C8.00769 9.67977 9.34102 8.34644 9.34102 6.67977C9.34102 5.0131 8.00769 3.67977 6.34102 3.67977Z" fill="#606368"/>
</svg>
