<svg width="16" height="16" viewBox="0 0 16 16" fill="none" xmlns="http://www.w3.org/2000/svg">
<path d="M6.34115 2.34644C7.49042 2.34644 8.59262 2.80298 9.40528 3.61564C10.2179 4.4283 10.6745 5.5305 10.6745 6.67977C10.6745 7.7531 10.2811 8.73977 9.63448 9.49977L9.66803 9.53332C9.7618 9.62709 9.88898 9.67977 10.0216 9.67977H10.134C10.2666 9.67977 10.3938 9.73245 10.4876 9.82622L13.3209 12.6595C13.5162 12.8548 13.5162 13.1714 13.3209 13.3667L13.028 13.6595C12.8328 13.8548 12.5162 13.8548 12.3209 13.6595L9.48759 10.8262C9.39382 10.7324 9.34115 10.6053 9.34115 10.4727V10.3602C9.34115 10.2276 9.28847 10.1004 9.1947 10.0067L9.16115 9.9731C8.40115 10.6198 7.41448 11.0131 6.34115 11.0131C5.19187 11.0131 4.08967 10.5566 3.27702 9.7439C2.46436 8.93124 2.00781 7.82904 2.00781 6.67977C2.00781 5.5305 2.46436 4.4283 3.27702 3.61564C4.08967 2.80298 5.19187 2.34644 6.34115 2.34644ZM6.34115 3.67977C4.67448 3.67977 3.34115 5.0131 3.34115 6.67977C3.34115 8.34644 4.67448 9.67977 6.34115 9.67977C8.00781 9.67977 9.34115 8.34644 9.34115 6.67977C9.34115 5.0131 8.00781 3.67977 6.34115 3.67977Z" fill="#606368"/>
</svg>
