<svg width="213" height="52" viewBox="0 0 213 52" fill="none" xmlns="http://www.w3.org/2000/svg">
<g clip-path="url(#clip0_1_29)">
<path d="M156.922 3.725C156.922 1.66882 158.777 0 161.065 0H208.827C211.115 0 212.969 1.66882 212.969 3.725V48.2757C212.969 50.3325 211.115 52 208.827 52H161.065C158.777 52 156.922 50.3325 156.922 48.2764V3.72432V3.725Z" fill="#0A66C2"/>
<path d="M0.029068 43.5577H23.4191V36.4773H8.4952V9.46732H0.029068V43.5577ZM35.2613 43.5577V20.077H26.7959V43.5577H35.2613ZM31.0294 16.8716C33.9809 16.8716 35.8183 15.0685 35.8183 12.8138C35.7636 10.5101 33.9809 8.75806 31.0856 8.75806C28.1896 8.75806 26.2959 10.5108 26.2959 12.8138C26.2959 15.0685 28.1334 16.8716 30.9739 16.8716H31.0294V16.8716ZM39.1915 43.5577H47.6569V30.4445C47.6569 29.7427 47.7116 29.041 47.9357 28.5411C48.5467 27.1389 49.9396 25.6863 52.2787 25.6863C55.3426 25.6863 56.5683 27.84 56.5683 30.9949V43.557H65.0322V30.094C65.0322 22.8813 60.8557 19.5252 55.2856 19.5252C50.7193 19.5252 48.7139 21.8788 47.5999 23.4821H47.6569V20.077H39.1915C39.3032 22.2805 39.1915 43.5577 39.1915 43.5577V43.5577ZM76.975 9.46732H68.5097V43.5577H76.975V35.9447L79.0907 33.4889L85.7186 43.5577H96.1324L84.9951 28.9816L94.7402 19.0656H84.5498C84.5498 19.0656 77.5883 27.9368 76.975 28.9898V9.46732Z" fill="#0A66C2"/>
<path d="M118.771 33.763C118.882 33.1601 119.049 32.0035 119.049 30.6954C119.049 24.6258 115.707 18.4634 106.908 18.4634C97.4961 18.4634 93.1517 25.3262 93.1517 31.5507C93.1517 39.2489 98.4429 44.0562 107.687 44.0562C111.364 44.0562 114.76 43.557 117.546 42.5047L116.432 37.3503C114.147 38.0486 111.808 38.3985 108.913 38.3985C104.959 38.3985 101.507 36.9015 101.228 33.7125L118.771 33.7616V33.763ZM101.173 28.4831C101.395 26.4794 102.844 23.523 106.464 23.523C110.306 23.523 111.198 26.6792 111.198 28.4831H101.173H101.173ZM139.944 9.4673V21.2684H139.833C138.607 19.6166 136.045 18.5145 132.65 18.5145C126.133 18.5145 120.397 23.3225 120.452 31.5363C120.452 39.15 125.632 44.1087 132.091 44.1087C135.601 44.1087 138.941 42.7052 140.613 40.0004H140.779L141.115 43.5577H148.632C148.521 41.9045 148.409 39.0498 148.409 36.2448V9.46661H139.944L139.944 9.4673ZM139.944 32.6889C139.944 33.289 139.889 33.8912 139.776 34.3904C139.277 36.5455 137.272 38.0466 134.821 38.0466C131.313 38.0466 129.029 35.4427 129.029 31.3358C129.029 27.4799 130.98 24.3741 134.877 24.3741C137.494 24.3741 139.332 26.0266 139.833 28.0793C139.944 28.5315 139.944 29.0328 139.944 29.4829V32.6882V32.6889Z" fill="#0A66C2"/>
<path d="M174.826 43.5291V20.0483H166.361V43.5291H174.827H174.826ZM170.595 16.843C173.546 16.843 175.384 15.0398 175.384 12.7866C175.328 10.4821 173.546 8.72943 170.651 8.72943C167.753 8.72943 165.861 10.4821 165.861 12.7866C165.861 15.0398 167.698 16.843 170.539 16.843H170.594H170.595ZM179.511 43.5291H187.976V30.4179C187.976 29.7168 188.031 29.0144 188.255 28.5138C188.867 27.111 190.26 25.659 192.599 25.659C195.661 25.659 196.887 27.8121 196.887 30.969V43.5291H205.351V30.066C205.351 22.854 201.176 19.498 195.606 19.498C191.04 19.498 189.035 21.8508 187.921 23.4535H187.977V20.049H179.512C179.622 22.2518 179.511 43.5298 179.511 43.5298V43.5291Z" fill="white"/>
</g>
<defs>
<clipPath id="clip0_1_29">
<rect width="213" height="52" fill="white"/>
</clipPath>
</defs>
</svg>
